<mxfile host="65bd71144e">
    <diagram name="Page-1" id="JTDgjrsOg8VIrQ7j6ZKq">
        <mxGraphModel dx="2733" dy="928" grid="1" gridSize="20" guides="1" tooltips="1" connect="1" arrows="1" fold="1" page="1" pageScale="1" pageWidth="827" pageHeight="1169" math="0" shadow="0">
            <root>
                <mxCell id="0"/>
                <mxCell id="1" parent="0"/>
                <mxCell id="MFYeefzVg2YBX95TLZvp-1" value="&lt;font style=&quot;font-size: 36px;&quot;&gt;MCD Merise - V_Parrot&lt;/font&gt;" style="rounded=1;whiteSpace=wrap;html=1;" parent="1" vertex="1">
                    <mxGeometry x="550" y="30" width="530" height="60" as="geometry"/>
                </mxCell>
                <mxCell id="MFYeefzVg2YBX95TLZvp-6" value="schedule" style="swimlane;fontStyle=0;childLayout=stackLayout;horizontal=1;startSize=30;horizontalStack=0;resizeParent=1;resizeParentMax=0;resizeLast=0;collapsible=1;marginBottom=0;whiteSpace=wrap;html=1;align=center;fontSize=20;" parent="1" vertex="1">
                    <mxGeometry x="830" y="1790" width="140" height="210" as="geometry"/>
                </mxCell>
                <mxCell id="MFYeefzVg2YBX95TLZvp-7" value="id_schedule" style="text;strokeColor=none;fillColor=none;align=center;verticalAlign=middle;spacingLeft=4;spacingRight=4;overflow=hidden;points=[[0,0.5],[1,0.5]];portConstraint=eastwest;rotatable=0;whiteSpace=wrap;html=1;fontSize=20;" parent="MFYeefzVg2YBX95TLZvp-6" vertex="1">
                    <mxGeometry y="30" width="140" height="30" as="geometry"/>
                </mxCell>
                <mxCell id="MFYeefzVg2YBX95TLZvp-8" value="day" style="text;strokeColor=none;fillColor=none;align=center;verticalAlign=middle;spacingLeft=4;spacingRight=4;overflow=hidden;points=[[0,0.5],[1,0.5]];portConstraint=eastwest;rotatable=0;whiteSpace=wrap;html=1;fontSize=20;" parent="MFYeefzVg2YBX95TLZvp-6" vertex="1">
                    <mxGeometry y="60" width="140" height="30" as="geometry"/>
                </mxCell>
                <mxCell id="MFYeefzVg2YBX95TLZvp-9" value="slot" style="text;strokeColor=none;fillColor=none;align=center;verticalAlign=middle;spacingLeft=4;spacingRight=4;overflow=hidden;points=[[0,0.5],[1,0.5]];portConstraint=eastwest;rotatable=0;whiteSpace=wrap;html=1;fontSize=20;" parent="MFYeefzVg2YBX95TLZvp-6" vertex="1">
                    <mxGeometry y="90" width="140" height="30" as="geometry"/>
                </mxCell>
                <mxCell id="MFYeefzVg2YBX95TLZvp-12" value="opening" style="text;strokeColor=none;fillColor=none;align=center;verticalAlign=middle;spacingLeft=4;spacingRight=4;overflow=hidden;points=[[0,0.5],[1,0.5]];portConstraint=eastwest;rotatable=0;whiteSpace=wrap;html=1;fontSize=20;" parent="MFYeefzVg2YBX95TLZvp-6" vertex="1">
                    <mxGeometry y="120" width="140" height="30" as="geometry"/>
                </mxCell>
                <mxCell id="MFYeefzVg2YBX95TLZvp-13" value="closing" style="text;strokeColor=none;fillColor=none;align=center;verticalAlign=middle;spacingLeft=4;spacingRight=4;overflow=hidden;points=[[0,0.5],[1,0.5]];portConstraint=eastwest;rotatable=0;whiteSpace=wrap;html=1;fontSize=20;" parent="MFYeefzVg2YBX95TLZvp-6" vertex="1">
                    <mxGeometry y="150" width="140" height="30" as="geometry"/>
                </mxCell>
                <mxCell id="MFYeefzVg2YBX95TLZvp-14" value="close" style="text;strokeColor=none;fillColor=none;align=center;verticalAlign=middle;spacingLeft=4;spacingRight=4;overflow=hidden;points=[[0,0.5],[1,0.5]];portConstraint=eastwest;rotatable=0;whiteSpace=wrap;html=1;fontSize=20;" parent="MFYeefzVg2YBX95TLZvp-6" vertex="1">
                    <mxGeometry y="180" width="140" height="30" as="geometry"/>
                </mxCell>
                <mxCell id="MFYeefzVg2YBX95TLZvp-15" value="garage" style="swimlane;fontStyle=0;childLayout=stackLayout;horizontal=1;startSize=30;horizontalStack=0;resizeParent=1;resizeParentMax=0;resizeLast=0;collapsible=1;marginBottom=0;whiteSpace=wrap;html=1;align=center;fontSize=20;" parent="1" vertex="1">
                    <mxGeometry x="830" y="1270" width="140" height="180" as="geometry"/>
                </mxCell>
                <mxCell id="MFYeefzVg2YBX95TLZvp-16" value="id_garage" style="text;strokeColor=none;fillColor=none;align=center;verticalAlign=middle;spacingLeft=4;spacingRight=4;overflow=hidden;points=[[0,0.5],[1,0.5]];portConstraint=eastwest;rotatable=0;whiteSpace=wrap;html=1;fontSize=20;" parent="MFYeefzVg2YBX95TLZvp-15" vertex="1">
                    <mxGeometry y="30" width="140" height="30" as="geometry"/>
                </mxCell>
                <mxCell id="MFYeefzVg2YBX95TLZvp-17" value="name" style="text;strokeColor=none;fillColor=none;align=center;verticalAlign=middle;spacingLeft=4;spacingRight=4;overflow=hidden;points=[[0,0.5],[1,0.5]];portConstraint=eastwest;rotatable=0;whiteSpace=wrap;html=1;fontSize=20;" parent="MFYeefzVg2YBX95TLZvp-15" vertex="1">
                    <mxGeometry y="60" width="140" height="30" as="geometry"/>
                </mxCell>
                <mxCell id="MFYeefzVg2YBX95TLZvp-18" value="mail" style="text;strokeColor=none;fillColor=none;align=center;verticalAlign=middle;spacingLeft=4;spacingRight=4;overflow=hidden;points=[[0,0.5],[1,0.5]];portConstraint=eastwest;rotatable=0;whiteSpace=wrap;html=1;fontSize=20;" parent="MFYeefzVg2YBX95TLZvp-15" vertex="1">
                    <mxGeometry y="90" width="140" height="30" as="geometry"/>
                </mxCell>
                <mxCell id="MFYeefzVg2YBX95TLZvp-19" value="adress" style="text;strokeColor=none;fillColor=none;align=center;verticalAlign=middle;spacingLeft=4;spacingRight=4;overflow=hidden;points=[[0,0.5],[1,0.5]];portConstraint=eastwest;rotatable=0;whiteSpace=wrap;html=1;fontSize=20;" parent="MFYeefzVg2YBX95TLZvp-15" vertex="1">
                    <mxGeometry y="120" width="140" height="30" as="geometry"/>
                </mxCell>
                <mxCell id="MFYeefzVg2YBX95TLZvp-21" value="tel" style="text;strokeColor=none;fillColor=none;align=center;verticalAlign=middle;spacingLeft=4;spacingRight=4;overflow=hidden;points=[[0,0.5],[1,0.5]];portConstraint=eastwest;rotatable=0;whiteSpace=wrap;html=1;fontSize=20;" parent="MFYeefzVg2YBX95TLZvp-15" vertex="1">
                    <mxGeometry y="150" width="140" height="30" as="geometry"/>
                </mxCell>
                <mxCell id="MFYeefzVg2YBX95TLZvp-22" value="possesses" style="ellipse;whiteSpace=wrap;html=1;fontSize=20;" parent="1" vertex="1">
                    <mxGeometry x="840" y="1580" width="120" height="70" as="geometry"/>
                </mxCell>
                <mxCell id="MFYeefzVg2YBX95TLZvp-23" value="" style="endArrow=none;html=1;rounded=0;entryX=0.477;entryY=1.043;entryDx=0;entryDy=0;entryPerimeter=0;exitX=0.473;exitY=-0.055;exitDx=0;exitDy=0;exitPerimeter=0;" parent="1" source="MFYeefzVg2YBX95TLZvp-22" target="MFYeefzVg2YBX95TLZvp-21" edge="1">
                    <mxGeometry width="50" height="50" relative="1" as="geometry">
                        <mxPoint x="890" y="1570" as="sourcePoint"/>
                        <mxPoint x="920" y="1470" as="targetPoint"/>
                    </mxGeometry>
                </mxCell>
                <mxCell id="MFYeefzVg2YBX95TLZvp-24" value="1,n" style="text;html=1;align=center;verticalAlign=middle;resizable=0;points=[];autosize=1;strokeColor=none;fillColor=none;fontSize=20;" parent="1" vertex="1">
                    <mxGeometry x="890" y="1450" width="60" height="40" as="geometry"/>
                </mxCell>
                <mxCell id="MFYeefzVg2YBX95TLZvp-25" value="" style="endArrow=none;html=1;rounded=0;entryX=0.477;entryY=1.043;entryDx=0;entryDy=0;entryPerimeter=0;exitX=0.477;exitY=-0.014;exitDx=0;exitDy=0;exitPerimeter=0;" parent="1" source="MFYeefzVg2YBX95TLZvp-6" edge="1">
                    <mxGeometry width="50" height="50" relative="1" as="geometry">
                        <mxPoint x="897" y="1745" as="sourcePoint"/>
                        <mxPoint x="897" y="1650" as="targetPoint"/>
                    </mxGeometry>
                </mxCell>
                <mxCell id="MFYeefzVg2YBX95TLZvp-26" value="1,1" style="text;html=1;align=center;verticalAlign=middle;resizable=0;points=[];autosize=1;strokeColor=none;fillColor=none;fontSize=20;" parent="1" vertex="1">
                    <mxGeometry x="890" y="1750" width="60" height="40" as="geometry"/>
                </mxCell>
                <mxCell id="MFYeefzVg2YBX95TLZvp-27" value="propose" style="ellipse;whiteSpace=wrap;html=1;fontSize=20;" parent="1" vertex="1">
                    <mxGeometry x="1070" y="1340" width="120" height="70" as="geometry"/>
                </mxCell>
                <mxCell id="MFYeefzVg2YBX95TLZvp-28" value="service" style="swimlane;fontStyle=0;childLayout=stackLayout;horizontal=1;startSize=30;horizontalStack=0;resizeParent=1;resizeParentMax=0;resizeLast=0;collapsible=1;marginBottom=0;whiteSpace=wrap;html=1;align=center;fontSize=20;" parent="1" vertex="1">
                    <mxGeometry x="1311" y="1315" width="140" height="120" as="geometry"/>
                </mxCell>
                <mxCell id="MFYeefzVg2YBX95TLZvp-29" value="id_service" style="text;strokeColor=none;fillColor=none;align=center;verticalAlign=middle;spacingLeft=4;spacingRight=4;overflow=hidden;points=[[0,0.5],[1,0.5]];portConstraint=eastwest;rotatable=0;whiteSpace=wrap;html=1;fontSize=20;" parent="MFYeefzVg2YBX95TLZvp-28" vertex="1">
                    <mxGeometry y="30" width="140" height="30" as="geometry"/>
                </mxCell>
                <mxCell id="MFYeefzVg2YBX95TLZvp-30" value="title" style="text;strokeColor=none;fillColor=none;align=center;verticalAlign=middle;spacingLeft=4;spacingRight=4;overflow=hidden;points=[[0,0.5],[1,0.5]];portConstraint=eastwest;rotatable=0;whiteSpace=wrap;html=1;fontSize=20;" parent="MFYeefzVg2YBX95TLZvp-28" vertex="1">
                    <mxGeometry y="60" width="140" height="30" as="geometry"/>
                </mxCell>
                <mxCell id="MFYeefzVg2YBX95TLZvp-31" value="description" style="text;strokeColor=none;fillColor=none;align=center;verticalAlign=middle;spacingLeft=4;spacingRight=4;overflow=hidden;points=[[0,0.5],[1,0.5]];portConstraint=eastwest;rotatable=0;whiteSpace=wrap;html=1;fontSize=20;" parent="MFYeefzVg2YBX95TLZvp-28" vertex="1">
                    <mxGeometry y="90" width="140" height="30" as="geometry"/>
                </mxCell>
                <mxCell id="MFYeefzVg2YBX95TLZvp-35" value="" style="endArrow=none;html=1;rounded=0;entryX=1;entryY=0.5;entryDx=0;entryDy=0;entryPerimeter=0;exitX=0;exitY=0.5;exitDx=0;exitDy=0;" parent="1" source="MFYeefzVg2YBX95TLZvp-27" target="MFYeefzVg2YBX95TLZvp-18" edge="1">
                    <mxGeometry width="50" height="50" relative="1" as="geometry">
                        <mxPoint x="970" y="1465" as="sourcePoint"/>
                        <mxPoint x="970" y="1370" as="targetPoint"/>
                    </mxGeometry>
                </mxCell>
                <mxCell id="MFYeefzVg2YBX95TLZvp-36" value="" style="endArrow=none;html=1;rounded=0;exitX=0;exitY=0.5;exitDx=0;exitDy=0;entryX=1.045;entryY=0.502;entryDx=0;entryDy=0;entryPerimeter=0;" parent="1" target="MFYeefzVg2YBX95TLZvp-27" edge="1">
                    <mxGeometry width="50" height="50" relative="1" as="geometry">
                        <mxPoint x="1311" y="1374.66" as="sourcePoint"/>
                        <mxPoint x="1210" y="1375" as="targetPoint"/>
                    </mxGeometry>
                </mxCell>
                <mxCell id="MFYeefzVg2YBX95TLZvp-37" value="testimonial" style="swimlane;fontStyle=0;childLayout=stackLayout;horizontal=1;startSize=30;horizontalStack=0;resizeParent=1;resizeParentMax=0;resizeLast=0;collapsible=1;marginBottom=0;whiteSpace=wrap;html=1;align=center;fontSize=20;" parent="1" vertex="1">
                    <mxGeometry x="414" y="1670" width="140" height="210" as="geometry"/>
                </mxCell>
                <mxCell id="MFYeefzVg2YBX95TLZvp-38" value="id_testimonial" style="text;strokeColor=none;fillColor=none;align=center;verticalAlign=middle;spacingLeft=4;spacingRight=4;overflow=hidden;points=[[0,0.5],[1,0.5]];portConstraint=eastwest;rotatable=0;whiteSpace=wrap;html=1;fontSize=20;" parent="MFYeefzVg2YBX95TLZvp-37" vertex="1">
                    <mxGeometry y="30" width="140" height="30" as="geometry"/>
                </mxCell>
                <mxCell id="MFYeefzVg2YBX95TLZvp-39" value="name" style="text;strokeColor=none;fillColor=none;align=center;verticalAlign=middle;spacingLeft=4;spacingRight=4;overflow=hidden;points=[[0,0.5],[1,0.5]];portConstraint=eastwest;rotatable=0;whiteSpace=wrap;html=1;fontSize=20;" parent="MFYeefzVg2YBX95TLZvp-37" vertex="1">
                    <mxGeometry y="60" width="140" height="30" as="geometry"/>
                </mxCell>
                <mxCell id="MFYeefzVg2YBX95TLZvp-40" value="surname" style="text;strokeColor=none;fillColor=none;align=center;verticalAlign=middle;spacingLeft=4;spacingRight=4;overflow=hidden;points=[[0,0.5],[1,0.5]];portConstraint=eastwest;rotatable=0;whiteSpace=wrap;html=1;fontSize=20;" parent="MFYeefzVg2YBX95TLZvp-37" vertex="1">
                    <mxGeometry y="90" width="140" height="30" as="geometry"/>
                </mxCell>
                <mxCell id="MFYeefzVg2YBX95TLZvp-41" value="message" style="text;strokeColor=none;fillColor=none;align=center;verticalAlign=middle;spacingLeft=4;spacingRight=4;overflow=hidden;points=[[0,0.5],[1,0.5]];portConstraint=eastwest;rotatable=0;whiteSpace=wrap;html=1;fontSize=20;" parent="MFYeefzVg2YBX95TLZvp-37" vertex="1">
                    <mxGeometry y="120" width="140" height="30" as="geometry"/>
                </mxCell>
                <mxCell id="MFYeefzVg2YBX95TLZvp-42" value="score" style="text;strokeColor=none;fillColor=none;align=center;verticalAlign=middle;spacingLeft=4;spacingRight=4;overflow=hidden;points=[[0,0.5],[1,0.5]];portConstraint=eastwest;rotatable=0;whiteSpace=wrap;html=1;fontSize=20;" parent="MFYeefzVg2YBX95TLZvp-37" vertex="1">
                    <mxGeometry y="150" width="140" height="30" as="geometry"/>
                </mxCell>
                <mxCell id="MFYeefzVg2YBX95TLZvp-43" value="is_actif" style="text;strokeColor=none;fillColor=none;align=center;verticalAlign=middle;spacingLeft=4;spacingRight=4;overflow=hidden;points=[[0,0.5],[1,0.5]];portConstraint=eastwest;rotatable=0;whiteSpace=wrap;html=1;fontSize=20;" parent="MFYeefzVg2YBX95TLZvp-37" vertex="1">
                    <mxGeometry y="180" width="140" height="30" as="geometry"/>
                </mxCell>
                <mxCell id="MFYeefzVg2YBX95TLZvp-44" value="contain" style="ellipse;whiteSpace=wrap;html=1;fontSize=20;" parent="1" vertex="1">
                    <mxGeometry x="650" y="1510" width="120" height="70" as="geometry"/>
                </mxCell>
                <mxCell id="MFYeefzVg2YBX95TLZvp-45" value="1,n" style="text;html=1;align=center;verticalAlign=middle;resizable=0;points=[];autosize=1;strokeColor=none;fillColor=none;fontSize=20;" parent="1" vertex="1">
                    <mxGeometry x="1251" y="1340" width="60" height="40" as="geometry"/>
                </mxCell>
                <mxCell id="MFYeefzVg2YBX95TLZvp-46" value="1,n" style="text;html=1;align=center;verticalAlign=middle;resizable=0;points=[];autosize=1;strokeColor=none;fillColor=none;fontSize=20;" parent="1" vertex="1">
                    <mxGeometry x="970" y="1340" width="60" height="40" as="geometry"/>
                </mxCell>
                <mxCell id="MFYeefzVg2YBX95TLZvp-47" value="" style="endArrow=none;html=1;rounded=0;entryX=-0.016;entryY=1.025;entryDx=0;entryDy=0;entryPerimeter=0;exitX=1;exitY=0;exitDx=0;exitDy=0;" parent="1" source="MFYeefzVg2YBX95TLZvp-44" target="MFYeefzVg2YBX95TLZvp-21" edge="1">
                    <mxGeometry width="50" height="50" relative="1" as="geometry">
                        <mxPoint x="750" y="1560" as="sourcePoint"/>
                        <mxPoint x="800" y="1510" as="targetPoint"/>
                    </mxGeometry>
                </mxCell>
                <mxCell id="MFYeefzVg2YBX95TLZvp-48" value="" style="endArrow=none;html=1;rounded=0;exitX=1;exitY=0;exitDx=0;exitDy=0;entryX=0;entryY=1;entryDx=0;entryDy=0;" parent="1" source="MFYeefzVg2YBX95TLZvp-37" target="MFYeefzVg2YBX95TLZvp-44" edge="1">
                    <mxGeometry width="50" height="50" relative="1" as="geometry">
                        <mxPoint x="810" y="1580" as="sourcePoint"/>
                        <mxPoint x="860" y="1530" as="targetPoint"/>
                    </mxGeometry>
                </mxCell>
                <mxCell id="MFYeefzVg2YBX95TLZvp-49" value="1,1" style="text;html=1;align=center;verticalAlign=middle;resizable=0;points=[];autosize=1;strokeColor=none;fillColor=none;fontSize=20;" parent="1" vertex="1">
                    <mxGeometry x="554" y="1650" width="60" height="40" as="geometry"/>
                </mxCell>
                <mxCell id="MFYeefzVg2YBX95TLZvp-50" value="0,n" style="text;html=1;align=center;verticalAlign=middle;resizable=0;points=[];autosize=1;strokeColor=none;fillColor=none;fontSize=20;" parent="1" vertex="1">
                    <mxGeometry x="812.5" y="1450" width="60" height="40" as="geometry"/>
                </mxCell>
                <mxCell id="MFYeefzVg2YBX95TLZvp-51" value="product" style="swimlane;fontStyle=0;childLayout=stackLayout;horizontal=1;startSize=30;horizontalStack=0;resizeParent=1;resizeParentMax=0;resizeLast=0;collapsible=1;marginBottom=0;whiteSpace=wrap;html=1;align=center;fontSize=20;" parent="1" vertex="1">
                    <mxGeometry x="830" y="790" width="140" height="180" as="geometry"/>
                </mxCell>
                <mxCell id="MFYeefzVg2YBX95TLZvp-52" value="id_product" style="text;strokeColor=none;fillColor=none;align=center;verticalAlign=middle;spacingLeft=4;spacingRight=4;overflow=hidden;points=[[0,0.5],[1,0.5]];portConstraint=eastwest;rotatable=0;whiteSpace=wrap;html=1;fontSize=20;" parent="MFYeefzVg2YBX95TLZvp-51" vertex="1">
                    <mxGeometry y="30" width="140" height="30" as="geometry"/>
                </mxCell>
                <mxCell id="MFYeefzVg2YBX95TLZvp-53" value="title" style="text;strokeColor=none;fillColor=none;align=center;verticalAlign=middle;spacingLeft=4;spacingRight=4;overflow=hidden;points=[[0,0.5],[1,0.5]];portConstraint=eastwest;rotatable=0;whiteSpace=wrap;html=1;fontSize=20;" parent="MFYeefzVg2YBX95TLZvp-51" vertex="1">
                    <mxGeometry y="60" width="140" height="30" as="geometry"/>
                </mxCell>
                <mxCell id="MFYeefzVg2YBX95TLZvp-54" value="price" style="text;strokeColor=none;fillColor=none;align=center;verticalAlign=middle;spacingLeft=4;spacingRight=4;overflow=hidden;points=[[0,0.5],[1,0.5]];portConstraint=eastwest;rotatable=0;whiteSpace=wrap;html=1;fontSize=20;" parent="MFYeefzVg2YBX95TLZvp-51" vertex="1">
                    <mxGeometry y="90" width="140" height="30" as="geometry"/>
                </mxCell>
                <mxCell id="MFYeefzVg2YBX95TLZvp-65" value="quantity" style="text;strokeColor=none;fillColor=none;align=center;verticalAlign=middle;spacingLeft=4;spacingRight=4;overflow=hidden;points=[[0,0.5],[1,0.5]];portConstraint=eastwest;rotatable=0;whiteSpace=wrap;html=1;fontSize=20;" parent="MFYeefzVg2YBX95TLZvp-51" vertex="1">
                    <mxGeometry y="120" width="140" height="30" as="geometry"/>
                </mxCell>
                <mxCell id="_IsvfJTw4x8gKUq2jgQw-2" value="availability" style="text;strokeColor=none;fillColor=none;align=center;verticalAlign=middle;spacingLeft=4;spacingRight=4;overflow=hidden;points=[[0,0.5],[1,0.5]];portConstraint=eastwest;rotatable=0;whiteSpace=wrap;html=1;fontSize=20;" parent="MFYeefzVg2YBX95TLZvp-51" vertex="1">
                    <mxGeometry y="150" width="140" height="30" as="geometry"/>
                </mxCell>
                <mxCell id="MFYeefzVg2YBX95TLZvp-58" value="send" style="ellipse;whiteSpace=wrap;html=1;fontSize=20;" parent="1" vertex="1">
                    <mxGeometry x="840" y="1110" width="120" height="70" as="geometry"/>
                </mxCell>
                <mxCell id="MFYeefzVg2YBX95TLZvp-59" value="" style="endArrow=none;html=1;rounded=0;entryX=0.5;entryY=1;entryDx=0;entryDy=0;exitX=0.5;exitY=0;exitDx=0;exitDy=0;" parent="1" source="MFYeefzVg2YBX95TLZvp-15" target="MFYeefzVg2YBX95TLZvp-58" edge="1">
                    <mxGeometry width="50" height="50" relative="1" as="geometry">
                        <mxPoint x="970" y="1230" as="sourcePoint"/>
                        <mxPoint x="980" y="1130" as="targetPoint"/>
                    </mxGeometry>
                </mxCell>
                <mxCell id="MFYeefzVg2YBX95TLZvp-60" value="" style="endArrow=none;html=1;rounded=0;exitX=0.5;exitY=0;exitDx=0;exitDy=0;entryX=0.503;entryY=1.005;entryDx=0;entryDy=0;entryPerimeter=0;" parent="1" source="MFYeefzVg2YBX95TLZvp-58" target="_IsvfJTw4x8gKUq2jgQw-2" edge="1">
                    <mxGeometry width="50" height="50" relative="1" as="geometry">
                        <mxPoint x="930" y="1180" as="sourcePoint"/>
                        <mxPoint x="898" y="1010" as="targetPoint"/>
                    </mxGeometry>
                </mxCell>
                <mxCell id="MFYeefzVg2YBX95TLZvp-61" value="0,n" style="text;html=1;align=center;verticalAlign=middle;resizable=0;points=[];autosize=1;strokeColor=none;fillColor=none;fontSize=20;" parent="1" vertex="1">
                    <mxGeometry x="897" y="1230" width="60" height="40" as="geometry"/>
                </mxCell>
                <mxCell id="MFYeefzVg2YBX95TLZvp-62" value="1,1" style="text;html=1;align=center;verticalAlign=middle;resizable=0;points=[];autosize=1;strokeColor=none;fillColor=none;fontSize=20;" parent="1" vertex="1">
                    <mxGeometry x="900" y="1030" width="60" height="40" as="geometry"/>
                </mxCell>
                <mxCell id="MFYeefzVg2YBX95TLZvp-66" value="user" style="swimlane;fontStyle=0;childLayout=stackLayout;horizontal=1;startSize=30;horizontalStack=0;resizeParent=1;resizeParentMax=0;resizeLast=0;collapsible=1;marginBottom=0;whiteSpace=wrap;html=1;align=center;fontSize=20;" parent="1" vertex="1">
                    <mxGeometry x="280" y="1270" width="140" height="210" as="geometry"/>
                </mxCell>
                <mxCell id="MFYeefzVg2YBX95TLZvp-67" value="id_user" style="text;strokeColor=none;fillColor=none;align=center;verticalAlign=middle;spacingLeft=4;spacingRight=4;overflow=hidden;points=[[0,0.5],[1,0.5]];portConstraint=eastwest;rotatable=0;whiteSpace=wrap;html=1;fontSize=20;" parent="MFYeefzVg2YBX95TLZvp-66" vertex="1">
                    <mxGeometry y="30" width="140" height="30" as="geometry"/>
                </mxCell>
                <mxCell id="3" value="role" style="text;strokeColor=none;fillColor=none;align=center;verticalAlign=middle;spacingLeft=4;spacingRight=4;overflow=hidden;points=[[0,0.5],[1,0.5]];portConstraint=eastwest;rotatable=0;whiteSpace=wrap;html=1;fontSize=20;" parent="MFYeefzVg2YBX95TLZvp-66" vertex="1">
                    <mxGeometry y="60" width="140" height="30" as="geometry"/>
                </mxCell>
                <mxCell id="MFYeefzVg2YBX95TLZvp-68" value="firstname" style="text;strokeColor=none;fillColor=none;align=center;verticalAlign=middle;spacingLeft=4;spacingRight=4;overflow=hidden;points=[[0,0.5],[1,0.5]];portConstraint=eastwest;rotatable=0;whiteSpace=wrap;html=1;fontSize=20;" parent="MFYeefzVg2YBX95TLZvp-66" vertex="1">
                    <mxGeometry y="90" width="140" height="30" as="geometry"/>
                </mxCell>
                <mxCell id="MFYeefzVg2YBX95TLZvp-69" value="lastname" style="text;strokeColor=none;fillColor=none;align=center;verticalAlign=middle;spacingLeft=4;spacingRight=4;overflow=hidden;points=[[0,0.5],[1,0.5]];portConstraint=eastwest;rotatable=0;whiteSpace=wrap;html=1;fontSize=20;" parent="MFYeefzVg2YBX95TLZvp-66" vertex="1">
                    <mxGeometry y="120" width="140" height="30" as="geometry"/>
                </mxCell>
                <mxCell id="MFYeefzVg2YBX95TLZvp-70" value="mail" style="text;strokeColor=none;fillColor=none;align=center;verticalAlign=middle;spacingLeft=4;spacingRight=4;overflow=hidden;points=[[0,0.5],[1,0.5]];portConstraint=eastwest;rotatable=0;whiteSpace=wrap;html=1;fontSize=20;" parent="MFYeefzVg2YBX95TLZvp-66" vertex="1">
                    <mxGeometry y="150" width="140" height="30" as="geometry"/>
                </mxCell>
                <mxCell id="MFYeefzVg2YBX95TLZvp-71" value="password" style="text;strokeColor=none;fillColor=none;align=center;verticalAlign=middle;spacingLeft=4;spacingRight=4;overflow=hidden;points=[[0,0.5],[1,0.5]];portConstraint=eastwest;rotatable=0;whiteSpace=wrap;html=1;fontSize=20;" parent="MFYeefzVg2YBX95TLZvp-66" vertex="1">
                    <mxGeometry y="180" width="140" height="30" as="geometry"/>
                </mxCell>
                <mxCell id="MFYeefzVg2YBX95TLZvp-77" value="work" style="ellipse;whiteSpace=wrap;html=1;fontSize=20;" parent="1" vertex="1">
                    <mxGeometry x="565.5" y="1320" width="120" height="70" as="geometry"/>
                </mxCell>
                <mxCell id="MFYeefzVg2YBX95TLZvp-81" value="" style="endArrow=none;html=1;rounded=0;exitX=-0.017;exitY=0.988;exitDx=0;exitDy=0;entryX=0;entryY=0.5;entryDx=0;entryDy=0;exitPerimeter=0;" parent="1" source="MFYeefzVg2YBX95TLZvp-96" target="MFYeefzVg2YBX95TLZvp-77" edge="1">
                    <mxGeometry width="50" height="50" relative="1" as="geometry">
                        <mxPoint x="600" y="1371" as="sourcePoint"/>
                        <mxPoint x="650" y="1321" as="targetPoint"/>
                    </mxGeometry>
                </mxCell>
                <mxCell id="MFYeefzVg2YBX95TLZvp-82" value="" style="endArrow=none;html=1;rounded=0;exitX=1;exitY=0.5;exitDx=0;exitDy=0;entryX=-0.011;entryY=0.867;entryDx=0;entryDy=0;entryPerimeter=0;" parent="1" source="MFYeefzVg2YBX95TLZvp-77" target="MFYeefzVg2YBX95TLZvp-17" edge="1">
                    <mxGeometry width="50" height="50" relative="1" as="geometry">
                        <mxPoint x="690" y="1160" as="sourcePoint"/>
                        <mxPoint x="740" y="1110" as="targetPoint"/>
                    </mxGeometry>
                </mxCell>
                <mxCell id="MFYeefzVg2YBX95TLZvp-94" value="1,n" style="text;html=1;align=center;verticalAlign=middle;resizable=0;points=[];autosize=1;strokeColor=none;fillColor=none;fontSize=20;" parent="1" vertex="1">
                    <mxGeometry x="770" y="1315" width="60" height="40" as="geometry"/>
                </mxCell>
                <mxCell id="MFYeefzVg2YBX95TLZvp-96" value="1,n" style="text;html=1;align=center;verticalAlign=middle;resizable=0;points=[];autosize=1;strokeColor=none;fillColor=none;fontSize=20;" parent="1" vertex="1">
                    <mxGeometry x="420" y="1315" width="60" height="40" as="geometry"/>
                </mxCell>
                <mxCell id="MFYeefzVg2YBX95TLZvp-98" value="vehicle" style="swimlane;fontStyle=0;childLayout=stackLayout;horizontal=1;startSize=30;horizontalStack=0;resizeParent=1;resizeParentMax=0;resizeLast=0;collapsible=1;marginBottom=0;whiteSpace=wrap;html=1;align=center;fontSize=20;" parent="1" vertex="1">
                    <mxGeometry x="817.75" y="400" width="164.5" height="120" as="geometry"/>
                </mxCell>
                <mxCell id="MFYeefzVg2YBX95TLZvp-100" value="years" style="text;strokeColor=none;fillColor=none;align=center;verticalAlign=middle;spacingLeft=4;spacingRight=4;overflow=hidden;points=[[0,0.5],[1,0.5]];portConstraint=eastwest;rotatable=0;whiteSpace=wrap;html=1;fontSize=20;" parent="MFYeefzVg2YBX95TLZvp-98" vertex="1">
                    <mxGeometry y="30" width="164.5" height="30" as="geometry"/>
                </mxCell>
                <mxCell id="MFYeefzVg2YBX95TLZvp-101" value="mileage" style="text;strokeColor=none;fillColor=none;align=center;verticalAlign=middle;spacingLeft=4;spacingRight=4;overflow=hidden;points=[[0,0.5],[1,0.5]];portConstraint=eastwest;rotatable=0;whiteSpace=wrap;html=1;fontSize=20;" parent="MFYeefzVg2YBX95TLZvp-98" vertex="1">
                    <mxGeometry y="60" width="164.5" height="30" as="geometry"/>
                </mxCell>
                <mxCell id="MFYeefzVg2YBX95TLZvp-102" value="description" style="text;strokeColor=none;fillColor=none;align=center;verticalAlign=middle;spacingLeft=4;spacingRight=4;overflow=hidden;points=[[0,0.5],[1,0.5]];portConstraint=eastwest;rotatable=0;whiteSpace=wrap;html=1;fontSize=20;" parent="MFYeefzVg2YBX95TLZvp-98" vertex="1">
                    <mxGeometry y="90" width="164.5" height="30" as="geometry"/>
                </mxCell>
                <mxCell id="MFYeefzVg2YBX95TLZvp-106" value="" style="endArrow=none;html=1;rounded=0;exitX=0.5;exitY=0;exitDx=0;exitDy=0;entryX=0.496;entryY=1.002;entryDx=0;entryDy=0;entryPerimeter=0;endFill=0;startArrow=block;startFill=0;strokeWidth=3;" parent="1" source="MFYeefzVg2YBX95TLZvp-51" target="MFYeefzVg2YBX95TLZvp-102" edge="1">
                    <mxGeometry width="50" height="50" relative="1" as="geometry">
                        <mxPoint x="900" y="650" as="sourcePoint"/>
                        <mxPoint x="900.2800000000002" y="550.9300000000001" as="targetPoint"/>
                    </mxGeometry>
                </mxCell>
                <mxCell id="MFYeefzVg2YBX95TLZvp-109" value="gearbox" style="swimlane;fontStyle=0;childLayout=stackLayout;horizontal=1;startSize=30;horizontalStack=0;resizeParent=1;resizeParentMax=0;resizeLast=0;collapsible=1;marginBottom=0;whiteSpace=wrap;html=1;align=center;fontSize=20;" parent="1" vertex="1">
                    <mxGeometry x="240" y="555" width="140" height="90" as="geometry"/>
                </mxCell>
                <mxCell id="MFYeefzVg2YBX95TLZvp-110" value="id_gearbox" style="text;strokeColor=none;fillColor=none;align=center;verticalAlign=middle;spacingLeft=4;spacingRight=4;overflow=hidden;points=[[0,0.5],[1,0.5]];portConstraint=eastwest;rotatable=0;whiteSpace=wrap;html=1;fontSize=20;" parent="MFYeefzVg2YBX95TLZvp-109" vertex="1">
                    <mxGeometry y="30" width="140" height="30" as="geometry"/>
                </mxCell>
                <mxCell id="MFYeefzVg2YBX95TLZvp-111" value="name" style="text;strokeColor=none;fillColor=none;align=center;verticalAlign=middle;spacingLeft=4;spacingRight=4;overflow=hidden;points=[[0,0.5],[1,0.5]];portConstraint=eastwest;rotatable=0;whiteSpace=wrap;html=1;fontSize=20;" parent="MFYeefzVg2YBX95TLZvp-109" vertex="1">
                    <mxGeometry y="60" width="140" height="30" as="geometry"/>
                </mxCell>
                <mxCell id="J0rR2LLyimg7_eQ2emDZ-1" style="edgeStyle=orthogonalEdgeStyle;rounded=0;orthogonalLoop=1;jettySize=auto;html=1;entryX=0;entryY=0.5;entryDx=0;entryDy=0;exitX=1;exitY=0.5;exitDx=0;exitDy=0;endArrow=none;endFill=0;" parent="1" source="MFYeefzVg2YBX95TLZvp-114" target="MFYeefzVg2YBX95TLZvp-101" edge="1">
                    <mxGeometry relative="1" as="geometry"/>
                </mxCell>
                <mxCell id="MFYeefzVg2YBX95TLZvp-114" value="use" style="ellipse;whiteSpace=wrap;html=1;fontSize=20;" parent="1" vertex="1">
                    <mxGeometry x="565.5" y="565" width="120" height="70" as="geometry"/>
                </mxCell>
                <mxCell id="MFYeefzVg2YBX95TLZvp-116" value="" style="endArrow=none;html=1;rounded=0;exitX=0;exitY=0.5;exitDx=0;exitDy=0;entryX=1;entryY=0.5;entryDx=0;entryDy=0;" parent="1" source="MFYeefzVg2YBX95TLZvp-114" target="MFYeefzVg2YBX95TLZvp-110" edge="1">
                    <mxGeometry width="50" height="50" relative="1" as="geometry">
                        <mxPoint x="890" y="320" as="sourcePoint"/>
                        <mxPoint x="940" y="270" as="targetPoint"/>
                    </mxGeometry>
                </mxCell>
                <mxCell id="MFYeefzVg2YBX95TLZvp-118" value="brand" style="swimlane;fontStyle=0;childLayout=stackLayout;horizontal=1;startSize=30;horizontalStack=0;resizeParent=1;resizeParentMax=0;resizeLast=0;collapsible=1;marginBottom=0;whiteSpace=wrap;html=1;align=center;fontSize=20;" parent="1" vertex="1">
                    <mxGeometry x="240" y="400" width="140" height="90" as="geometry"/>
                </mxCell>
                <mxCell id="MFYeefzVg2YBX95TLZvp-119" value="id_brand" style="text;strokeColor=none;fillColor=none;align=center;verticalAlign=middle;spacingLeft=4;spacingRight=4;overflow=hidden;points=[[0,0.5],[1,0.5]];portConstraint=eastwest;rotatable=0;whiteSpace=wrap;html=1;fontSize=20;" parent="MFYeefzVg2YBX95TLZvp-118" vertex="1">
                    <mxGeometry y="30" width="140" height="30" as="geometry"/>
                </mxCell>
                <mxCell id="MFYeefzVg2YBX95TLZvp-120" value="name" style="text;strokeColor=none;fillColor=none;align=center;verticalAlign=middle;spacingLeft=4;spacingRight=4;overflow=hidden;points=[[0,0.5],[1,0.5]];portConstraint=eastwest;rotatable=0;whiteSpace=wrap;html=1;fontSize=20;" parent="MFYeefzVg2YBX95TLZvp-118" vertex="1">
                    <mxGeometry y="60" width="140" height="30" as="geometry"/>
                </mxCell>
                <mxCell id="MFYeefzVg2YBX95TLZvp-121" value="holds" style="ellipse;whiteSpace=wrap;html=1;fontSize=20;" parent="1" vertex="1">
                    <mxGeometry x="565.5" y="400" width="120" height="70" as="geometry"/>
                </mxCell>
                <mxCell id="MFYeefzVg2YBX95TLZvp-122" value="" style="endArrow=none;html=1;rounded=0;exitX=1.008;exitY=0.207;exitDx=0;exitDy=0;entryX=0;entryY=0.5;entryDx=0;entryDy=0;exitPerimeter=0;" parent="1" source="MFYeefzVg2YBX95TLZvp-119" target="MFYeefzVg2YBX95TLZvp-121" edge="1">
                    <mxGeometry width="50" height="50" relative="1" as="geometry">
                        <mxPoint x="670" y="260" as="sourcePoint"/>
                        <mxPoint x="720" y="210" as="targetPoint"/>
                    </mxGeometry>
                </mxCell>
                <mxCell id="MFYeefzVg2YBX95TLZvp-123" value="" style="endArrow=none;html=1;rounded=0;entryX=1;entryY=0.5;entryDx=0;entryDy=0;exitX=-0.016;exitY=0.133;exitDx=0;exitDy=0;exitPerimeter=0;" parent="1" target="MFYeefzVg2YBX95TLZvp-121" edge="1">
                    <mxGeometry width="50" height="50" relative="1" as="geometry">
                        <mxPoint x="815.1180000000004" y="433.99" as="sourcePoint"/>
                        <mxPoint x="740" y="230" as="targetPoint"/>
                    </mxGeometry>
                </mxCell>
                <mxCell id="MFYeefzVg2YBX95TLZvp-125" value="1,n" style="text;html=1;align=center;verticalAlign=middle;resizable=0;points=[];autosize=1;strokeColor=none;fillColor=none;fontSize=20;" parent="1" vertex="1">
                    <mxGeometry x="380" y="555" width="60" height="40" as="geometry"/>
                </mxCell>
                <mxCell id="MFYeefzVg2YBX95TLZvp-126" value="1,1" style="text;html=1;align=center;verticalAlign=middle;resizable=0;points=[];autosize=1;strokeColor=none;fillColor=none;fontSize=20;" parent="1" vertex="1">
                    <mxGeometry x="757.75" y="510" width="60" height="40" as="geometry"/>
                </mxCell>
                <mxCell id="MFYeefzVg2YBX95TLZvp-127" value="1,1" style="text;html=1;align=center;verticalAlign=middle;resizable=0;points=[];autosize=1;strokeColor=none;fillColor=none;fontSize=20;" parent="1" vertex="1">
                    <mxGeometry x="757.75" y="400" width="60" height="40" as="geometry"/>
                </mxCell>
                <mxCell id="MFYeefzVg2YBX95TLZvp-128" value="1,n" style="text;html=1;align=center;verticalAlign=middle;resizable=0;points=[];autosize=1;strokeColor=none;fillColor=none;fontSize=20;" parent="1" vertex="1">
                    <mxGeometry x="380" y="400" width="60" height="40" as="geometry"/>
                </mxCell>
                <mxCell id="MFYeefzVg2YBX95TLZvp-129" value="picture" style="swimlane;fontStyle=0;childLayout=stackLayout;horizontal=1;startSize=30;horizontalStack=0;resizeParent=1;resizeParentMax=0;resizeLast=0;collapsible=1;marginBottom=0;whiteSpace=wrap;html=1;align=center;fontSize=20;" parent="1" vertex="1">
                    <mxGeometry x="1311" y="980" width="140" height="120" as="geometry"/>
                </mxCell>
                <mxCell id="MFYeefzVg2YBX95TLZvp-130" value="id_picture" style="text;strokeColor=none;fillColor=none;align=center;verticalAlign=middle;spacingLeft=4;spacingRight=4;overflow=hidden;points=[[0,0.5],[1,0.5]];portConstraint=eastwest;rotatable=0;whiteSpace=wrap;html=1;fontSize=20;" parent="MFYeefzVg2YBX95TLZvp-129" vertex="1">
                    <mxGeometry y="30" width="140" height="30" as="geometry"/>
                </mxCell>
                <mxCell id="MFYeefzVg2YBX95TLZvp-131" value="name" style="text;strokeColor=none;fillColor=none;align=center;verticalAlign=middle;spacingLeft=4;spacingRight=4;overflow=hidden;points=[[0,0.5],[1,0.5]];portConstraint=eastwest;rotatable=0;whiteSpace=wrap;html=1;fontSize=20;" parent="MFYeefzVg2YBX95TLZvp-129" vertex="1">
                    <mxGeometry y="60" width="140" height="30" as="geometry"/>
                </mxCell>
                <mxCell id="MFYeefzVg2YBX95TLZvp-132" value="path" style="text;strokeColor=none;fillColor=none;align=center;verticalAlign=middle;spacingLeft=4;spacingRight=4;overflow=hidden;points=[[0,0.5],[1,0.5]];portConstraint=eastwest;rotatable=0;whiteSpace=wrap;html=1;fontSize=20;" parent="MFYeefzVg2YBX95TLZvp-129" vertex="1">
                    <mxGeometry y="90" width="140" height="30" as="geometry"/>
                </mxCell>
                <mxCell id="MFYeefzVg2YBX95TLZvp-134" value="suggests" style="ellipse;whiteSpace=wrap;html=1;fontSize=20;" parent="1" vertex="1">
                    <mxGeometry x="1321" y="840" width="120" height="70" as="geometry"/>
                </mxCell>
                <mxCell id="MFYeefzVg2YBX95TLZvp-135" value="suggests" style="ellipse;whiteSpace=wrap;html=1;fontSize=20;" parent="1" vertex="1">
                    <mxGeometry x="1321" y="1180" width="120" height="70" as="geometry"/>
                </mxCell>
                <mxCell id="MFYeefzVg2YBX95TLZvp-136" value="" style="endArrow=none;html=1;rounded=0;entryX=0;entryY=0.5;entryDx=0;entryDy=0;exitX=1;exitY=0.833;exitDx=0;exitDy=0;exitPerimeter=0;" parent="1" source="MFYeefzVg2YBX95TLZvp-53" target="MFYeefzVg2YBX95TLZvp-134" edge="1">
                    <mxGeometry width="50" height="50" relative="1" as="geometry">
                        <mxPoint x="1190" y="780" as="sourcePoint"/>
                        <mxPoint x="1240" y="730" as="targetPoint"/>
                    </mxGeometry>
                </mxCell>
                <mxCell id="MFYeefzVg2YBX95TLZvp-137" value="" style="endArrow=none;html=1;rounded=0;entryX=0.5;entryY=1;entryDx=0;entryDy=0;exitX=0.5;exitY=0;exitDx=0;exitDy=0;" parent="1" source="MFYeefzVg2YBX95TLZvp-129" target="MFYeefzVg2YBX95TLZvp-134" edge="1">
                    <mxGeometry width="50" height="50" relative="1" as="geometry">
                        <mxPoint x="1170" y="700" as="sourcePoint"/>
                        <mxPoint x="1220" y="650" as="targetPoint"/>
                    </mxGeometry>
                </mxCell>
                <mxCell id="MFYeefzVg2YBX95TLZvp-138" value="" style="endArrow=none;html=1;rounded=0;entryX=0.5;entryY=1;entryDx=0;entryDy=0;exitX=0.5;exitY=0;exitDx=0;exitDy=0;" parent="1" source="MFYeefzVg2YBX95TLZvp-28" target="MFYeefzVg2YBX95TLZvp-135" edge="1">
                    <mxGeometry width="50" height="50" relative="1" as="geometry">
                        <mxPoint x="1250" y="1220" as="sourcePoint"/>
                        <mxPoint x="1300" y="1170" as="targetPoint"/>
                    </mxGeometry>
                </mxCell>
                <mxCell id="MFYeefzVg2YBX95TLZvp-139" value="" style="endArrow=none;html=1;rounded=0;exitX=0.5;exitY=0;exitDx=0;exitDy=0;entryX=0.497;entryY=1.021;entryDx=0;entryDy=0;entryPerimeter=0;" parent="1" source="MFYeefzVg2YBX95TLZvp-135" target="MFYeefzVg2YBX95TLZvp-132" edge="1">
                    <mxGeometry width="50" height="50" relative="1" as="geometry">
                        <mxPoint x="1250" y="1220" as="sourcePoint"/>
                        <mxPoint x="1150" y="1090" as="targetPoint"/>
                    </mxGeometry>
                </mxCell>
                <mxCell id="MFYeefzVg2YBX95TLZvp-140" value="1,n" style="text;html=1;align=center;verticalAlign=middle;resizable=0;points=[];autosize=1;strokeColor=none;fillColor=none;fontSize=20;" parent="1" vertex="1">
                    <mxGeometry x="1381" y="1275" width="60" height="40" as="geometry"/>
                </mxCell>
                <mxCell id="MFYeefzVg2YBX95TLZvp-141" value="1,1" style="text;html=1;align=center;verticalAlign=middle;resizable=0;points=[];autosize=1;strokeColor=none;fillColor=none;fontSize=20;" parent="1" vertex="1">
                    <mxGeometry x="1381" y="1100" width="60" height="40" as="geometry"/>
                </mxCell>
                <mxCell id="MFYeefzVg2YBX95TLZvp-142" value="1,1" style="text;html=1;align=center;verticalAlign=middle;resizable=0;points=[];autosize=1;strokeColor=none;fillColor=none;fontSize=20;" parent="1" vertex="1">
                    <mxGeometry x="1381" y="940" width="60" height="40" as="geometry"/>
                </mxCell>
                <mxCell id="MFYeefzVg2YBX95TLZvp-143" value="1,n" style="text;html=1;align=center;verticalAlign=middle;resizable=0;points=[];autosize=1;strokeColor=none;fillColor=none;fontSize=20;" parent="1" vertex="1">
                    <mxGeometry x="970" y="840" width="60" height="40" as="geometry"/>
                </mxCell>
                <mxCell id="b-tqWk1eXTbQrMEXyWfv-1" value="category" style="swimlane;fontStyle=0;childLayout=stackLayout;horizontal=1;startSize=30;horizontalStack=0;resizeParent=1;resizeParentMax=0;resizeLast=0;collapsible=1;marginBottom=0;whiteSpace=wrap;html=1;align=center;fontSize=20;" parent="1" vertex="1">
                    <mxGeometry x="240" y="790" width="140" height="90" as="geometry"/>
                </mxCell>
                <mxCell id="b-tqWk1eXTbQrMEXyWfv-2" value="id_category" style="text;strokeColor=none;fillColor=none;align=center;verticalAlign=middle;spacingLeft=4;spacingRight=4;overflow=hidden;points=[[0,0.5],[1,0.5]];portConstraint=eastwest;rotatable=0;whiteSpace=wrap;html=1;fontSize=20;" parent="b-tqWk1eXTbQrMEXyWfv-1" vertex="1">
                    <mxGeometry y="30" width="140" height="30" as="geometry"/>
                </mxCell>
                <mxCell id="b-tqWk1eXTbQrMEXyWfv-3" value="name" style="text;strokeColor=none;fillColor=none;align=center;verticalAlign=middle;spacingLeft=4;spacingRight=4;overflow=hidden;points=[[0,0.5],[1,0.5]];portConstraint=eastwest;rotatable=0;whiteSpace=wrap;html=1;fontSize=20;" parent="b-tqWk1eXTbQrMEXyWfv-1" vertex="1">
                    <mxGeometry y="60" width="140" height="30" as="geometry"/>
                </mxCell>
                <mxCell id="b-tqWk1eXTbQrMEXyWfv-4" value="type" style="swimlane;fontStyle=0;childLayout=stackLayout;horizontal=1;startSize=30;horizontalStack=0;resizeParent=1;resizeParentMax=0;resizeLast=0;collapsible=1;marginBottom=0;whiteSpace=wrap;html=1;align=center;fontSize=20;" parent="1" vertex="1">
                    <mxGeometry x="240" y="940" width="140" height="90" as="geometry"/>
                </mxCell>
                <mxCell id="b-tqWk1eXTbQrMEXyWfv-5" value="id_type" style="text;strokeColor=none;fillColor=none;align=center;verticalAlign=middle;spacingLeft=4;spacingRight=4;overflow=hidden;points=[[0,0.5],[1,0.5]];portConstraint=eastwest;rotatable=0;whiteSpace=wrap;html=1;fontSize=20;" parent="b-tqWk1eXTbQrMEXyWfv-4" vertex="1">
                    <mxGeometry y="30" width="140" height="30" as="geometry"/>
                </mxCell>
                <mxCell id="b-tqWk1eXTbQrMEXyWfv-6" value="name" style="text;strokeColor=none;fillColor=none;align=center;verticalAlign=middle;spacingLeft=4;spacingRight=4;overflow=hidden;points=[[0,0.5],[1,0.5]];portConstraint=eastwest;rotatable=0;whiteSpace=wrap;html=1;fontSize=20;" parent="b-tqWk1eXTbQrMEXyWfv-4" vertex="1">
                    <mxGeometry y="60" width="140" height="30" as="geometry"/>
                </mxCell>
                <mxCell id="b-tqWk1eXTbQrMEXyWfv-7" style="edgeStyle=orthogonalEdgeStyle;rounded=0;orthogonalLoop=1;jettySize=auto;html=1;entryX=1;entryY=0.5;entryDx=0;entryDy=0;endArrow=none;endFill=0;" parent="1" source="b-tqWk1eXTbQrMEXyWfv-9" target="b-tqWk1eXTbQrMEXyWfv-2" edge="1">
                    <mxGeometry relative="1" as="geometry"/>
                </mxCell>
                <mxCell id="b-tqWk1eXTbQrMEXyWfv-8" style="edgeStyle=orthogonalEdgeStyle;rounded=0;orthogonalLoop=1;jettySize=auto;html=1;entryX=0;entryY=0.5;entryDx=0;entryDy=0;endArrow=none;endFill=0;" parent="1" source="b-tqWk1eXTbQrMEXyWfv-9" edge="1">
                    <mxGeometry relative="1" as="geometry">
                        <mxPoint x="830" y="835" as="targetPoint"/>
                        <Array as="points">
                            <mxPoint x="830" y="840"/>
                        </Array>
                    </mxGeometry>
                </mxCell>
                <mxCell id="b-tqWk1eXTbQrMEXyWfv-9" value="belongs" style="ellipse;whiteSpace=wrap;html=1;fontSize=20;" parent="1" vertex="1">
                    <mxGeometry x="565.5" y="800" width="120" height="70" as="geometry"/>
                </mxCell>
                <mxCell id="b-tqWk1eXTbQrMEXyWfv-10" style="edgeStyle=orthogonalEdgeStyle;rounded=0;orthogonalLoop=1;jettySize=auto;html=1;entryX=0;entryY=0.5;entryDx=0;entryDy=0;endArrow=none;endFill=0;" parent="1" source="b-tqWk1eXTbQrMEXyWfv-11" edge="1">
                    <mxGeometry relative="1" as="geometry">
                        <Array as="points">
                            <mxPoint x="760" y="980"/>
                            <mxPoint x="760" y="925"/>
                        </Array>
                        <mxPoint x="830" y="925" as="targetPoint"/>
                    </mxGeometry>
                </mxCell>
                <mxCell id="b-tqWk1eXTbQrMEXyWfv-11" value="belongs too" style="ellipse;whiteSpace=wrap;html=1;fontSize=20;" parent="1" vertex="1">
                    <mxGeometry x="565.5" y="950" width="120" height="70" as="geometry"/>
                </mxCell>
                <mxCell id="b-tqWk1eXTbQrMEXyWfv-12" value="1,1" style="text;html=1;align=center;verticalAlign=middle;resizable=0;points=[];autosize=1;strokeColor=none;fillColor=none;fontSize=20;" parent="1" vertex="1">
                    <mxGeometry x="770" y="800" width="60" height="40" as="geometry"/>
                </mxCell>
                <mxCell id="b-tqWk1eXTbQrMEXyWfv-13" value="1,n" style="text;html=1;align=center;verticalAlign=middle;resizable=0;points=[];autosize=1;strokeColor=none;fillColor=none;fontSize=20;" parent="1" vertex="1">
                    <mxGeometry x="380" y="790" width="60" height="40" as="geometry"/>
                </mxCell>
                <mxCell id="b-tqWk1eXTbQrMEXyWfv-14" style="edgeStyle=orthogonalEdgeStyle;rounded=0;orthogonalLoop=1;jettySize=auto;html=1;exitX=1;exitY=0.5;exitDx=0;exitDy=0;entryX=0;entryY=0.5;entryDx=0;entryDy=0;endArrow=none;endFill=0;" parent="1" source="b-tqWk1eXTbQrMEXyWfv-5" target="b-tqWk1eXTbQrMEXyWfv-11" edge="1">
                    <mxGeometry relative="1" as="geometry"/>
                </mxCell>
                <mxCell id="b-tqWk1eXTbQrMEXyWfv-15" value="1,1" style="text;html=1;align=center;verticalAlign=middle;resizable=0;points=[];autosize=1;strokeColor=none;fillColor=none;fontSize=20;" parent="1" vertex="1">
                    <mxGeometry x="767" y="930" width="60" height="40" as="geometry"/>
                </mxCell>
                <mxCell id="b-tqWk1eXTbQrMEXyWfv-16" value="1,n" style="text;html=1;align=center;verticalAlign=middle;resizable=0;points=[];autosize=1;strokeColor=none;fillColor=none;fontSize=20;" parent="1" vertex="1">
                    <mxGeometry x="380" y="945" width="60" height="40" as="geometry"/>
                </mxCell>
                <mxCell id="b-tqWk1eXTbQrMEXyWfv-34" style="edgeStyle=orthogonalEdgeStyle;rounded=0;orthogonalLoop=1;jettySize=auto;html=1;entryX=0;entryY=0.5;entryDx=0;entryDy=0;endArrow=none;endFill=0;" parent="1" source="b-tqWk1eXTbQrMEXyWfv-30" target="b-tqWk1eXTbQrMEXyWfv-33" edge="1">
                    <mxGeometry relative="1" as="geometry"/>
                </mxCell>
                <mxCell id="b-tqWk1eXTbQrMEXyWfv-30" value="model" style="swimlane;fontStyle=0;childLayout=stackLayout;horizontal=1;startSize=30;horizontalStack=0;resizeParent=1;resizeParentMax=0;resizeLast=0;collapsible=1;marginBottom=0;whiteSpace=wrap;html=1;align=center;fontSize=20;" parent="1" vertex="1">
                    <mxGeometry x="240" y="240" width="140" height="90" as="geometry"/>
                </mxCell>
                <mxCell id="b-tqWk1eXTbQrMEXyWfv-31" value="id_model" style="text;strokeColor=none;fillColor=none;align=center;verticalAlign=middle;spacingLeft=4;spacingRight=4;overflow=hidden;points=[[0,0.5],[1,0.5]];portConstraint=eastwest;rotatable=0;whiteSpace=wrap;html=1;fontSize=20;" parent="b-tqWk1eXTbQrMEXyWfv-30" vertex="1">
                    <mxGeometry y="30" width="140" height="30" as="geometry"/>
                </mxCell>
                <mxCell id="b-tqWk1eXTbQrMEXyWfv-32" value="name" style="text;strokeColor=none;fillColor=none;align=center;verticalAlign=middle;spacingLeft=4;spacingRight=4;overflow=hidden;points=[[0,0.5],[1,0.5]];portConstraint=eastwest;rotatable=0;whiteSpace=wrap;html=1;fontSize=20;" parent="b-tqWk1eXTbQrMEXyWfv-30" vertex="1">
                    <mxGeometry y="60" width="140" height="30" as="geometry"/>
                </mxCell>
                <mxCell id="b-tqWk1eXTbQrMEXyWfv-35" style="edgeStyle=orthogonalEdgeStyle;rounded=0;orthogonalLoop=1;jettySize=auto;html=1;entryX=0.25;entryY=0;entryDx=0;entryDy=0;endArrow=none;endFill=0;" parent="1" source="b-tqWk1eXTbQrMEXyWfv-33" target="MFYeefzVg2YBX95TLZvp-98" edge="1">
                    <mxGeometry relative="1" as="geometry"/>
                </mxCell>
                <mxCell id="b-tqWk1eXTbQrMEXyWfv-33" value="is represented by" style="ellipse;whiteSpace=wrap;html=1;fontSize=20;" parent="1" vertex="1">
                    <mxGeometry x="565.5" y="250" width="120" height="70" as="geometry"/>
                </mxCell>
                <mxCell id="b-tqWk1eXTbQrMEXyWfv-36" value="energy" style="swimlane;fontStyle=0;childLayout=stackLayout;horizontal=1;startSize=30;horizontalStack=0;resizeParent=1;resizeParentMax=0;resizeLast=0;collapsible=1;marginBottom=0;whiteSpace=wrap;html=1;align=center;fontSize=20;" parent="1" vertex="1">
                    <mxGeometry x="1311" y="240" width="140" height="90" as="geometry"/>
                </mxCell>
                <mxCell id="b-tqWk1eXTbQrMEXyWfv-37" value="id_energy" style="text;strokeColor=none;fillColor=none;align=center;verticalAlign=middle;spacingLeft=4;spacingRight=4;overflow=hidden;points=[[0,0.5],[1,0.5]];portConstraint=eastwest;rotatable=0;whiteSpace=wrap;html=1;fontSize=20;" parent="b-tqWk1eXTbQrMEXyWfv-36" vertex="1">
                    <mxGeometry y="30" width="140" height="30" as="geometry"/>
                </mxCell>
                <mxCell id="b-tqWk1eXTbQrMEXyWfv-38" value="name" style="text;strokeColor=none;fillColor=none;align=center;verticalAlign=middle;spacingLeft=4;spacingRight=4;overflow=hidden;points=[[0,0.5],[1,0.5]];portConstraint=eastwest;rotatable=0;whiteSpace=wrap;html=1;fontSize=20;" parent="b-tqWk1eXTbQrMEXyWfv-36" vertex="1">
                    <mxGeometry y="60" width="140" height="30" as="geometry"/>
                </mxCell>
                <mxCell id="b-tqWk1eXTbQrMEXyWfv-40" style="edgeStyle=orthogonalEdgeStyle;rounded=0;orthogonalLoop=1;jettySize=auto;html=1;entryX=0.75;entryY=0;entryDx=0;entryDy=0;endArrow=none;endFill=0;" parent="1" source="b-tqWk1eXTbQrMEXyWfv-39" target="MFYeefzVg2YBX95TLZvp-98" edge="1">
                    <mxGeometry relative="1" as="geometry"/>
                </mxCell>
                <mxCell id="b-tqWk1eXTbQrMEXyWfv-41" style="edgeStyle=orthogonalEdgeStyle;rounded=0;orthogonalLoop=1;jettySize=auto;html=1;entryX=0;entryY=0.5;entryDx=0;entryDy=0;endArrow=none;endFill=0;" parent="1" source="b-tqWk1eXTbQrMEXyWfv-39" target="b-tqWk1eXTbQrMEXyWfv-37" edge="1">
                    <mxGeometry relative="1" as="geometry"/>
                </mxCell>
                <mxCell id="b-tqWk1eXTbQrMEXyWfv-39" value="consume" style="ellipse;whiteSpace=wrap;html=1;fontSize=20;" parent="1" vertex="1">
                    <mxGeometry x="1040" y="250" width="120" height="70" as="geometry"/>
                </mxCell>
                <mxCell id="b-tqWk1eXTbQrMEXyWfv-42" value="1,1" style="text;html=1;align=center;verticalAlign=middle;resizable=0;points=[];autosize=1;strokeColor=none;fillColor=none;fontSize=20;" parent="1" vertex="1">
                    <mxGeometry x="800" y="360" width="60" height="40" as="geometry"/>
                </mxCell>
                <mxCell id="b-tqWk1eXTbQrMEXyWfv-43" value="1,1" style="text;html=1;align=center;verticalAlign=middle;resizable=0;points=[];autosize=1;strokeColor=none;fillColor=none;fontSize=20;" parent="1" vertex="1">
                    <mxGeometry x="940" y="360" width="60" height="40" as="geometry"/>
                </mxCell>
                <mxCell id="b-tqWk1eXTbQrMEXyWfv-44" value="1,n" style="text;html=1;align=center;verticalAlign=middle;resizable=0;points=[];autosize=1;strokeColor=none;fillColor=none;fontSize=20;" parent="1" vertex="1">
                    <mxGeometry x="380" y="240" width="60" height="40" as="geometry"/>
                </mxCell>
                <mxCell id="b-tqWk1eXTbQrMEXyWfv-45" value="1,n" style="text;html=1;align=center;verticalAlign=middle;resizable=0;points=[];autosize=1;strokeColor=none;fillColor=none;fontSize=20;" parent="1" vertex="1">
                    <mxGeometry x="1251" y="240" width="60" height="40" as="geometry"/>
                </mxCell>
            </root>
        </mxGraphModel>
    </diagram>
</mxfile>